<svg width="752" height="752" xmlns="http://www.w3.org/2000/svg" xml:space="preserve" version="1.1">
    <g>
    <title>Layer 1</title>
    <g id="svg_1">
    <path id="svg_2" d="m224.20001,167.60004"/>
    <circle id="svg_3" stroke-miterlimit="10" stroke-width="5.0355" stroke="#000000" fill="none" r="375.79999" cy="375.80004" cx="375.80001" class="st0"/>
    <g id="svg_4">
        <ellipse id="svg_5" fill="#FFFFFF" ry="156.9" rx="156.9" cy="371.58135" cx="1099.43875" class="st1" transform="matrix(0.7071 -0.7071 0.7071 0.7071 -664.333 890.483)"/>
        <path id="svg_6" d="m375.80001,0.00004c-207.5,0 -375.8,168.2 -375.8,375.8s168.2,375.8 375.8,375.8s375.8,-168.2 375.8,-375.8s-168.2,-375.8 -375.8,-375.8zm0,532.6c-86.6,0 -156.9,-70.2 -156.9,-156.9c0,-86.6 70.2,-156.9 156.9,-156.9c86.6,0 156.9,70.2 156.9,156.9c0,86.7 -70.2,156.9 -156.9,156.9z"/>
    </g>
    <path id="svg_7" fill="#FFFFFF" d="m203.70001,93.80004c-31.7,21.9 -115.4,87.5 -133,180.4c-0.2,1.3 1.5,1.9 2.1,0.7c12.2,-25.1 56.5,-109.5 132.2,-179.4c1.1,-0.9 -0.1,-2.5 -1.3,-1.7z" class="st1"/>
    <path id="svg_8" fill="#FFFFFF" d="m229.00001,147.40004c-21.4,14.7 -78.6,58.9 -91.3,118c-0.4,1.6 1.9,2.5 2.7,1c10.5,-20.6 40,-72.8 89.4,-117.8c0.7,-0.7 -0.1,-1.7 -0.8,-1.2z" class="st1"/>
    <path id="svg_9" fill="#FFFFFF" d="m268.50001,198.70004c-14,10.8 -51,42.4 -56.1,77.5c-0.1,1 1.5,1.2 1.9,0.3c6,-13 23.3,-46 54.9,-77.2c0.4,-0.5 -0.2,-1 -0.7,-0.6z" class="st1"/>
    <path id="svg_10" fill="#FFFFFF" d="m704.50001,390.10004c-22,108.8 -77.1,196.3 -91,217.1c-0.5,0.8 0.5,1.6 1.2,1c77.5,-66.7 89.5,-183.1 91.4,-218c0,-0.9 -1.4,-1.1 -1.6,-0.1z" class="st1"/>
    <path id="svg_11" fill="#FFFFFF" d="m643.90001,400.70004c-13.7,67.1 -44.2,120.4 -56.9,140.4c-0.9,1.4 1,3 2.3,1.9c45.4,-42.1 54.3,-115.6 56,-142.1c0.1,-0.9 -1.2,-1.1 -1.4,-0.2z" class="st1"/>
    <path id="svg_12" fill="#FFFFFF" d="m578.70001,392.70004c-10.9,44.1 -31,76.6 -39.2,88.7c-0.6,0.9 0.5,2.2 1.2,1.6c28.2,-22.9 36.6,-72.1 38.8,-90c0.1,-0.6 -0.6,-0.9 -0.8,-0.3z" class="st1"/>
    <g id="svg_13">
        <path id="svg_14" d="m327.00001,421.00004c9.6,0.2 18.7,-2 27.8,-4.4c10.7,-2.8 20.8,-0.9 23.5,13.9c0.7,3.6 1.3,6.4 2.3,10.6c5.8,23.2 45.5,105.8 45.5,105.8c-9.1,35.6 -59.1,-106.5 -59.9,-109.9c-2.1,-9.3 -7.6,-8 -14.6,-6.3c-40.7,10 -75.7,-3.5 -93.4,-35.5c-2.3,-4.2 -4.4,-8.8 -5.7,-13.4c-3.1,-10.9 0,-19.7 9.4,-26.3c12.1,-8.5 25.8,-13.6 39.6,-18.3c4.2,-1.4 7.5,-3.1 9,-7.8c19.2,-62.7 90.2,-64.2 127.7,-36.7c24.4,17.9 37.5,43.4 49.5,69.9c1.6,3.5 75.8,63.2 75.9,67.8c0.1,13.7 -70.9,-45.2 -87.4,-62.5c-6.9,-7.3 -8.8,-18.1 -13.7,-26.9c-17.4,-31.1 -41.6,-52.4 -79.5,-52c-27.5,0.3 -48.2,12.3 -57.5,39.1c-4.1,11.9 -14,20.9 -26.2,23.9c-3.2,0.8 -6.2,2.6 -9.4,3.7c-6.4,2 -9.8,3.8 -4.5,11.6c5.6,8.2 1.9,18.3 -8,23.9c-5,2.8 -4,4.6 -1.3,7.8c13.4,15.4 30.8,21.8 50.9,22z"/>
        <path id="svg_15" d="m439.60001,345.50004c-4.8,1.1 -4.7,5.7 -6.1,9c-5,12 -9.9,24.1 -19.1,33.7c-8.4,8.7 -18.2,13.5 -30.7,9.4c-11.5,-3.8 -15.6,-13 -17.2,-23.8c-3.4,-23.8 4.8,-45.5 13.2,-67c1.3,-3.4 4.6,-4.8 8.1,-3.2c4.4,2 4.7,5.6 3.1,9.8c-4.8,13.1 -9.2,26.4 -10.9,40.3c-0.7,6.1 -1.1,12.3 -0.9,18.4c0.2,5.3 1.9,10.4 7.5,12.7c6.1,2.4 11.5,0.7 16.2,-3.5c7.6,-7 12,-16.1 16,-25.4c1.9,-4.5 3.4,-9.2 5.5,-13.5c4.1,-8.5 12.3,-12.4 20,-9.7c7.6,2.6 11,10.9 8.5,20.3c-1.1,4 -3,7.8 -7.8,6.9c-4.5,-0.9 -6.2,-4.3 -5.1,-8.9c0.4,-1.8 1.6,-3.6 -0.3,-5.5z"/>
        <path id="svg_16" d="m349.80001,334.10004c-0.2,5.4 -2.8,8.7 -8.2,8.9c-5.5,0.3 -8.7,-3 -8.9,-8.1c-0.2,-5.1 3,-8.8 8.2,-9c5.2,-0.2 8.4,2.9 8.9,8.2z"/>
    </g>
    <g id="svg_17">
        <path id="svg_18" fill="#FFFFFF" d="m86.80001,453.30004l2.9,5.5l-5.5,2.9l2.9,5.5l-5.5,2.9l2.9,5.5l-5.5,2.9l2.9,5.5l-5.5,2.9l2.9,5.5l5.5,-2.9l2.9,5.5l5.5,-2.9l2.9,5.5l5.5,-2.9l2.9,5.5l5.5,-2.9l2.9,5.5l-49.1,26.2l-2.9,-5.5l38.2,-20.4l-2.9,-5.5l-5.5,2.9l-2.9,-5.5l-5.5,2.9l-2.9,-5.5l-5.5,2.9l-2.9,-5.5l5.5,-2.9l-2.9,-5.5l5.5,-2.9l-2.9,-5.5l5.5,-2.9l-2.9,-5.5l-38.2,20.4l-2.9,-5.5l49.1,-26.2z" class="st1"/>
        <path id="svg_19" fill="#FFFFFF" d="m90.90001,555.90004l-3.7,-5l-5,3.7l-7.3,-10l5,-3.7l-3.7,-5l24.9,-18.3l3.7,5l-24.9,18.3l7.3,10l5,-3.7l3.7,5l19.9,-14.7l3.7,5l-29.9,22l-3.7,-5l5,-3.6z" class="st1"/>
        <path id="svg_20" fill="#FFFFFF" d="m122.50001,592.60004l-4.2,-4.6l-4.6,4.2l-12.6,-13.7l4.6,-4.2l-4.2,-4.6l4.6,-4.2l4.2,4.6l-4.6,4.2l12.6,13.7l9.1,-8.4l-12.6,-13.7l4.6,-4.2l-4.2,-4.6l4.6,-4.2l4.2,4.6l4.6,-4.2l12.6,13.7l-4.6,4.2l-12.6,-13.7l-4.6,4.2l12.6,13.7l-4.6,4.2l4.2,4.6l-9.1,8.4z" class="st1"/>
        <path id="svg_21" fill="#FFFFFF" d="m135.10001,613.10004l-4.6,-4.2l24.9,-27.5l4.6,4.2l-24.9,27.5zm28.7,-40.8l4.2,-4.6l4.6,4.2l-4.2,4.6l-4.6,-4.2z" class="st1"/>
        <path id="svg_22" fill="#FFFFFF" d="m176.50001,638.60004l-4.9,-3.7l-3.7,4.9l-14.8,-11.2l3.7,-4.9l-4.9,-3.7l14.9,-19.8l4.9,3.7l3.7,-4.9l14.8,11.2l-3.7,4.9l4.9,3.7l-3.7,4.9l-4.9,-3.7l3.7,-4.9l-14.8,-11.2l-14.9,19.8l14.8,11.2l3.7,-4.9l4.9,3.7l-3.7,4.9z" class="st1"/>
        <path id="svg_23" fill="#FFFFFF" d="m208.00001,666.40004l24,-50.2l27.9,13.3l-2.7,5.6l5.6,2.7l-2.7,5.6l5.6,2.7l-13.3,27.9l-5.6,-2.7l-2.7,5.6l-5.6,-2.7l-2.7,5.6l-27.8,-13.4zm8.2,-2.9l22.3,10.7l2.7,-5.6l5.6,2.7l13.3,-27.9l-5.6,-2.7l2.7,-5.6l-22.3,-10.7l-18.7,39.1z" class="st1"/>
        <path id="svg_24" fill="#FFFFFF" d="m260.80001,684.00004l7.8,-23.5l5.9,1.9l1.9,-5.9l17.6,5.8l-1.9,5.9l5.9,1.9l-7.8,23.5l-5.9,-1.9l-1.9,5.9l-17.6,-5.8l1.9,-5.9l-5.9,-1.9zm5.8,1.9l17.6,5.8l7.8,-23.5l-17.6,-5.8l-7.8,23.5z" class="st1"/>
        <path id="svg_25" fill="#FFFFFF" d="m297.10001,715.10004l1.3,-6.1l6.1,1.3l-1.3,6.1l18.2,3.9l2.6,-12.1l-18.2,-3.9l1.3,-6.1l-6.1,-1.3l5.1,-24.2l6.1,1.3l1.3,-6.1l24.2,5.1l-10.3,48.4l-6.1,-1.3l-1.3,6.1l-18.2,-3.9l1.3,-6.1l-6,-1.1zm15.1,-41.1l-5.1,24.2l18.2,3.9l5.1,-24.2l-18.2,-3.9z" class="st1"/>
    </g>
    </g>
    </g>
</svg>