<svg width="260" height="252" xmlns="http://www.w3.org/2000/svg" xml:space="preserve" version="1.1">
    <g>
    <title>Layer 1</title>
    <path id="svg_1" d="m200.88248,10.7744c-3.5,-2.5 -2.8,-7.8 1.2,-9.4c1.3,-0.5 2.6,-0.8 4,-1c5.2,-0.7 10.4,-0.5 15.4,1.3c1.9,0.7 3.9,1.6 5.3,2.9c8.6,8.2 18.5,14.3 29.6,18.5c4.1,1.5 4.6,2.8 3.1,7c-2.3,6.5 -6.3,11.9 -10.6,17.2c-7.1,8.7 -15,16.5 -24.8,22.2c-2.9,1.7 -4,1.4 -6.1,-1.4c-3.6,-4.9 -5.6,-10.6 -6.5,-16.5c-1.1,-6.8 -1.4,-13.7 -2,-20.6c-0.4,-7.7 -1.7,-15.2 -8.6,-20.2l0,0z"/>
    <path id="svg_2" d="m63.88248,4.9744c1.1,1 0.8,2.7 -0.5,3.3c-0.2,0.1 -0.4,0.2 -0.5,0.3c-8.3,4.1 -11.3,11.4 -12,20c-0.4,5.5 -0.5,11 -1,16.5c-0.6,6.6 -2.4,12.8 -5.2,18.8c-0.7,1.4 -1.4,2.7 -2.3,4c-2.4,3.4 -3.8,3.5 -7.8,0.8c-13.5,-8.9 -24.3,-20.4 -32.1,-34.5c-1.1,-1.9 -1.7,-4.1 -2.3,-6.2c-0.6,-2.1 0.3,-3.4 2.4,-4.4c6.6,-3.2 13.3,-6.4 19.7,-10c2.9,-1.6 5.6,-3.9 7.9,-6.3c3.9,-3.9 8.4,-6.3 13.8,-6.8c7.2,-0.8 14.1,-0.6 19.9,4.5l0,0z"/>
    <path id="svg_3" d="m136.38248,156.6744c-3.3,-2.2 -7.9,-1.4 -10.1,1.9c-2.3,3.3 -1.4,8.1 2,10.3c3.3,2.2 7.9,1.2 10.1,-2.1c2.2,-3.3 1.2,-7.9 -2,-10.1z"/>
    <path id="svg_4" d="m132.38248,92.7744c2,0 4,0 6,0c2.3,0 4,1 4.9,3.1c0.9,2.1 0.6,4 -0.8,5.7c-2.1,2.4 -4.2,4.8 -6.3,7.1c-2.2,2.3 -5.5,2.3 -7.7,0c-2.2,-2.4 -4.3,-4.8 -6.4,-7.2c-1.4,-1.7 -1.7,-3.6 -0.7,-5.6c0.9,-1.9 2.5,-3 4.6,-3c2,-0.1 4.2,-0.1 6.4,-0.1c0,0 0,0 0,0z"/>
    <g id="svg_5">
    <g id="svg_6">
        <g id="svg_7">
        <path id="svg_8" d="m162.48248,100.5744c1.6,0 1.6,-2.5 0,-2.5c-1.6,0 -1.6,2.5 0,2.5l0,0z"/>
        </g>
    </g>
    <g id="svg_9">
        <g id="svg_10">
        <path id="svg_11" d="m154.58248,109.4744c1.6,0 1.6,-2.5 0,-2.5c-1.6,0.1 -1.6,2.5 0,2.5l0,0z"/>
        </g>
    </g>
    <g id="svg_12">
        <g id="svg_13">
        <path id="svg_14" d="m165.78248,113.0744c1.6,0 1.6,-2.5 0,-2.5c-1.6,0 -1.6,2.5 0,2.5l0,0z"/>
        </g>
    </g>
    <g id="svg_15">
        <g id="svg_16">
        <path id="svg_17" d="m105.08248,100.5744c1.6,0 1.6,-2.5 0,-2.5c-1.6,0 -1.6,2.5 0,2.5l0,0z"/>
        </g>
    </g>
    <g id="svg_18">
        <g id="svg_19">
        <path id="svg_20" d="m97.18248,109.4744c1.6,0 1.6,-2.5 0,-2.5c-1.6,0.1 -1.6,2.5 0,2.5l0,0z"/>
        </g>
    </g>
    <g id="svg_21">
        <g id="svg_22">
        <path id="svg_23" d="m108.38248,113.0744c1.6,0 1.6,-2.5 0,-2.5c-1.6,0 -1.6,2.5 0,2.5l0,0z"/>
        </g>
    </g>
    </g>
    <g id="svg_24">
    <path id="svg_25" d="m160.48248,62.0744c0.6,5.7 -0.9,8.4 -4.9,8.8c-3.2,0.3 -6.1,-2.1 -6.4,-5.4c-0.5,-5.3 1.9,-9.4 5.5,-9.8c3.3,-0.2 5.3,2 5.8,6.4z"/>
    <path id="svg_26" d="m104.08248,66.6744c-0.6,-6 1.6,-9.9 5.2,-10.3c3,-0.3 5.5,2.5 5.8,6.5c0.4,5.1 -1.8,8.4 -5.6,8.5c-4,0.3 -5.1,-2.4 -5.4,-4.7z"/>
    </g>
    <g id="svg_27">
    <g id="svg_28">
        <path id="svg_29" fill="#FFFFFF" d="m108.18248,62.3744c2.6,0 2.6,-4 0,-4c-2.5,0 -2.5,4 0,4l0,0z" class="st0"/>
    </g>
    </g>
    <g id="svg_30">
    <g id="svg_31">
        <path id="svg_32" fill="#FFFFFF" d="m153.38248,61.5744c2.6,0 2.6,-4 0,-4c-2.6,0 -2.6,4 0,4l0,0z" class="st0"/>
    </g>
    </g>
    <path id="svg_33" d="m194.38248,95.8744c-1.1,-1.1 -3,-0.7 -3.6,0.7c-3.3,7.6 -14.4,26.3 -42.7,20.4c-7.2,-1.5 -13.5,-3.9 -15.8,-8.4c-2.3,4.5 -8.7,6.9 -15.8,8.4c-28.3,5.9 -39.4,-12.8 -42.7,-20.4c-0.6,-1.4 -2.5,-1.8 -3.6,-0.7c-17.2,16.3 -27.9,39.2 -28.1,64.7c-0.5,49.7 41.8,92 91.6,91.1c80.2,-1.8 119.1,-100.9 60.7,-155.8zm-62.1,95.9c-38.3,-1.3 -40.6,-55.5 -2.4,-60c1.6,-0.1 3.2,-0.1 4.9,0c38.1,4.5 35.8,58.8 -2.5,60z"/>
    <g id="svg_34">
    <path id="svg_35" fill="#FFFFFF" d="m71.18248,123.9744c-5.1,7.2 -18,27.9 -14.5,49.3c0,0.3 0.5,0.3 0.5,0c0.7,-6.4 3.6,-28 14.4,-49c0.1,-0.3 -0.3,-0.6 -0.4,-0.3z" class="st0"/>
    <path id="svg_36" fill="#FFFFFF" d="m80.78248,133.4744c-3.5,4.9 -12.3,18.8 -10.4,32.6c0.1,0.4 0.6,0.4 0.7,0c0.6,-5.3 2.9,-18.8 10,-32.4c0.1,-0.2 -0.2,-0.3 -0.3,-0.2z" class="st0"/>
    <path id="svg_37" fill="#FFFFFF" d="m93.28248,141.4744c-2.2,3.4 -7.7,13.1 -6,21.1c0,0.2 0.4,0.1 0.4,-0.1c0.3,-3.3 1.4,-11.7 5.8,-20.9c0.1,-0.2 -0.1,-0.2 -0.2,-0.1z" class="st0"/>
    <path id="svg_38" fill="#FFFFFF" d="m208.98248,165.4744c-4.9,24.4 -17.3,43.9 -20.4,48.6c-0.1,0.2 0.1,0.4 0.3,0.2c17.3,-14.9 20,-41 20.5,-48.8c-0.1,-0.2 -0.4,-0.3 -0.4,0z" class="st0"/>
    <path id="svg_39" fill="#FFFFFF" d="m195.38248,167.7744c-3.1,15 -9.9,26.9 -12.7,31.4c-0.2,0.3 0.2,0.7 0.5,0.4c10.2,-9.4 12.1,-25.9 12.5,-31.8c0,-0.1 -0.3,-0.2 -0.3,0z" class="st0"/>
    <path id="svg_40" fill="#FFFFFF" d="m180.78248,165.9744c-2.5,9.9 -6.9,17.2 -8.8,19.9c-0.1,0.2 0.1,0.5 0.3,0.4c6.3,-5.1 8.2,-16.1 8.7,-20.2c0,-0.1 -0.2,-0.2 -0.2,-0.1z" class="st0"/>
    </g>
    </g>
</svg>